# xmcd CD database file
#
# Track frame offsets:
#	150
#	50589
#	104688
#	143777
#	208603
#	252622
#
# Disc length: 3816 seconds
#
# Revision: 0
# Processed by: cddbd v1.5.1PL0 Copyright (c) Steve Scherf et al.
# Submitted via: CDex 1.51
#
DISCID=5d0ee606
DTITLE=Villemure O Carre - Live au Lion D'Or
DYEAR=2003
DGENRE=Jazz
TTITLE0=TDM
TTITLE1=KTEN Blues
TTITLE2=Folkish
TTITLE3=Days of Wine And Roses
TTITLE4=Douce Heure
TTITLE5=So So
EXTD=YEAR: 2003
EXTT0=
EXTT1=
EXTT2=
EXTT3=
EXTT4=
EXTT5=
PLAYORDER=
